G04 ================== begin FILE IDENTIFICATION RECORD ==================*
G04 Layout Name:  C:/ERS_TST_11/allegro/STAB_TST_11.brd*
G04 Film Name:    BOTTOM*
G04 File Format:  Gerber RS274X*
G04 File Origin:  Cadence Allegro 17.2-S025*
G04 Origin Date:  Sat Dec 06 10:50:01 2025*
G04 *
G04 Layer:  ETCH/BOTTOM*
G04 Layer:  PIN/BOTTOM*
G04 Layer:  VIA CLASS/BOTTOM*
G04 *
G04 Offset:    (0.0000 0.0000)*
G04 Mirror:    No*
G04 Mode:      Positive*
G04 Rotation:  0*
G04 FullContactRelief:  No*
G04 UndefLineWidth:     0.0000*
G04 ================== end FILE IDENTIFICATION RECORD ====================*
%FSLAX25Y25*MOMM*%
%IR0*IPPOS*OFA0.00000B0.00000*MIA0B0*SFA1.00000B1.00000*%
%ADD10C,.8*%
%ADD11C,.4*%
%ADD12C,.65*%
G75*
%LPD*%
G75*
G54D10*
X610000Y880000D03*
X740000Y400000D03*
X1080000Y680000D03*
X680000Y730000D03*
X1350000Y930000D03*
X1340000Y790000D03*
X740000Y550000D03*
X1250000Y1180000D03*
X1324850Y1267320D03*
X710000Y1180000D03*
X1070000Y2490000D03*
X1300000Y3300000D03*
X1490000Y230000D03*
X1620000Y1160000D03*
X1910000Y1030000D03*
Y770000D03*
X1730000Y720000D03*
X1520000Y3310000D03*
X1880000Y3530000D03*
X2380000Y1100000D03*
X2620000Y550000D03*
X2240000Y450000D03*
X2810000Y810000D03*
X2240000Y1170000D03*
Y1710000D03*
X2380000Y3250000D03*
X2556640Y2836640D03*
X2930000Y3680000D03*
X3370000Y1550000D03*
X3526640Y2353360D03*
X3165000Y3125000D03*
X3243360Y2836640D03*
X3150000Y3680000D03*
G54D11*
G01X1300000Y3300000D02*
X990000D01*
X840000Y3150000D01*
Y2740000D01*
X610000Y2510000D01*
Y880000D01*
G01X680000Y730000D02*
X730000Y680000D01*
X1080000D01*
G01X1350000Y930000D02*
Y1010000D01*
X1250000Y1110000D01*
Y1180000D01*
G01X1340000Y790000D02*
X1270000Y860000D01*
X740000D01*
X710000Y890000D01*
Y1180000D01*
G01X740000Y550000D02*
X2620000D01*
G01X2240000Y450000D02*
X852700D01*
X802700Y400000D01*
X740000D01*
G01X1324850Y1267320D02*
Y2450000D01*
X1284850Y2490000D01*
X1070000D01*
G01X1620000Y1160000D02*
X2080000D01*
X2170000Y1070000D01*
Y700000D01*
X2210000Y660000D01*
X2860000D01*
X2900000Y620000D01*
Y380000D01*
X2750000Y230000D01*
X1490000D01*
G01X1910000Y1030000D02*
Y770000D01*
G01X1730000Y720000D02*
Y970000D01*
X1690000Y1010000D01*
X1524360D01*
X1435000Y1099360D01*
Y3225000D01*
X1520000Y3310000D01*
G01X1880000Y3530000D02*
X2900000D01*
X3030000Y3400000D01*
Y3260000D01*
X3165000Y3125000D01*
G01X2380000Y1100000D02*
Y3250000D01*
G01X2240000Y1170000D02*
Y1710000D01*
G01X2930000Y3680000D02*
X3150000D01*
G01X3370000Y1550000D02*
Y2313360D01*
X3410000Y2353360D01*
X3526640D01*
G54D12*
G01X2556640Y2836640D02*
Y1245300D01*
X2595970Y1205970D01*
X2764030D01*
X2810000Y1160000D01*
Y810000D01*
G01X2556640Y2836640D02*
X3243360D01*
M02*
