M48
METRIC,TZ
T01C.4
;LEADER: 12 
;HEADER: 
;CODE  : ASCII 
;FILE  : STAB_TST_11-1-2.drl for  ... layers TOP and BOTTOM
;DESIGN: STAB_TST_11.brd
;T01 Holesize 1. = 0.400000 Tolerance = +0.000000/-0.000000 PLATED MM Quantity = 33
%
G90
T01
X2810000Y810000
X3243360Y2836640
X2556640Y2836640
X1880000Y3530000
X3165000Y3125000
X1730000Y720000
X1520000Y3310000
X2240000Y450000
X740000Y400000
X740000Y550000
X2620000Y550000
X2240000Y1710000
X2240000Y1170000
X710000Y1180000
X1340000Y790000
X3150000Y3680000
X2930000Y3680000
X1910000Y770000
X1910000Y1030000
X610000Y880000
X1300000Y3300000
X2380000Y3250000
X2380000Y1100000
X1070000Y2490000
X1324850Y1267320
X1620000Y1160000
X1490000Y230000
X1350000Y930000
X1250000Y1180000
X680000Y730000
X1080000Y680000
X3370000Y1550000
X3526640Y2353360
M30
