G04 ================== begin FILE IDENTIFICATION RECORD ==================*
G04 Layout Name:  C:/ERS_TST_11/allegro/STAB_TST_11.brd*
G04 Film Name:    FAB*
G04 File Format:  Gerber RS274X*
G04 File Origin:  Cadence Allegro 17.2-S025*
G04 Origin Date:  Sat Dec 06 10:50:01 2025*
G04 *
G04 Layer:  MANUFACTURING/NCDRILL_LEGEND*
G04 Layer:  MANUFACTURING/NCDRILL_FIGURE*
G04 Layer:  MANUFACTURING/XSECTION_CHART*
G04 Layer:  MANUFACTURING/NCLEGEND-1-2*
G04 Layer:  DRAWING FORMAT/OUTLINE*
G04 Layer:  BOARD GEOMETRY/DESIGN_OUTLINE*
G04 Layer:  BOARD GEOMETRY/CUTOUT*
G04 *
G04 Offset:    (0.0000 0.0000)*
G04 Mirror:    No*
G04 Mode:      Positive*
G04 Rotation:  0*
G04 FullContactRelief:  No*
G04 UndefLineWidth:     0.0000*
G04 ================== end FILE IDENTIFICATION RECORD ====================*
%FSLAX25Y25*MOMM*%
%IR0*IPPOS*OFA0.00000B0.00000*MIA0B0*SFA1.00000B1.00000*%
%AMMACRO10*
1,1,0.0,0.0,.5*
20,1,0.0,0.0,.5,.5,-.5,0.0*
1,1,0.0,.5,-.5*
20,1,0.0,.5,-.5,-.5,-.5,0.0*
1,1,0.0,-.5,-.5*
20,1,0.0,-.5,-.5,0.0,.5,0.0*
1,1,0.0,0.0,.5*
1,1,0.0,.25,0.0*
20,1,0.0,.25,0.0,-.25,0.0,0.0*
1,1,0.0,-.25,0.0*
1,1,0.0,0.0,.25*
20,1,0.0,0.0,.25,0.0,-.25,0.0*
1,1,0.0,0.0,-.25*
%
%ADD10MACRO10*%
%ADD11C,.1*%
G75*
%LPD*%
G75*
G36*
G01X-4567320Y4711100D02*
Y4125890D01*
X-4503820D01*
Y224450D01*
X-4567320D01*
Y-360760D01*
X-4186320D01*
Y224450D01*
X-4249820D01*
Y4125890D01*
X-4186320D01*
Y4711100D01*
X-4567320D01*
G37*
G36*
G01X-5075320Y-360760D02*
Y224450D01*
X-3551320D01*
Y-360760D01*
X-5075320D01*
G37*
G36*
G01Y4125890D02*
Y4711100D01*
X-3551320D01*
Y4125890D01*
X-5075320D01*
G37*
G54D10*
X181730Y-3327500D03*
X610000Y880000D03*
X740000Y400000D03*
X1080000Y680000D03*
X680000Y730000D03*
X1350000Y930000D03*
X1340000Y790000D03*
X740000Y550000D03*
X1250000Y1180000D03*
X1324850Y1267320D03*
X710000Y1180000D03*
X1070000Y2490000D03*
X1300000Y3300000D03*
X1490000Y230000D03*
X1620000Y1160000D03*
X1910000Y1030000D03*
Y770000D03*
X1730000Y720000D03*
X1520000Y3310000D03*
X1880000Y3530000D03*
X2380000Y1100000D03*
X2620000Y550000D03*
X2240000Y450000D03*
X2810000Y810000D03*
X2240000Y1170000D03*
Y1710000D03*
X2380000Y3250000D03*
X2556640Y2836640D03*
X2930000Y3680000D03*
X3370000Y1550000D03*
X3526640Y2353360D03*
X3165000Y3125000D03*
X3243360Y2836640D03*
X3150000Y3680000D03*
G54D11*
G01X-5533150Y-732420D02*
Y-632420D01*
X-5506490D01*
X-5495820Y-637420D01*
X-5487820Y-644090D01*
X-5481150Y-654090D01*
X-5475820Y-665760D01*
X-5474490Y-682420D01*
X-5475820Y-699090D01*
X-5481150Y-710750D01*
X-5487820Y-720760D01*
X-5495820Y-727420D01*
X-5506490Y-732420D01*
X-5533150D01*
G01X-5381910D02*
X-5435250D01*
Y-632420D01*
X-5381910D01*
G01X-5403250Y-680750D02*
X-5435250D01*
G01X-5341340Y-719090D02*
X-5330670Y-727420D01*
X-5318670Y-732420D01*
X-5308010D01*
X-5297340Y-727420D01*
X-5289340Y-719090D01*
X-5285340Y-707420D01*
X-5288010Y-695760D01*
X-5294670Y-685750D01*
X-5306670Y-679090D01*
X-5322670Y-675750D01*
X-5332010Y-669090D01*
X-5336010Y-657420D01*
X-5333340Y-645750D01*
X-5326670Y-637420D01*
X-5317340Y-632420D01*
X-5308010D01*
X-5298670Y-635750D01*
X-5290670Y-644090D01*
G01X-5234100Y-632420D02*
X-5202100D01*
G01X-5218100D02*
Y-732420D01*
G01X-5234100D02*
X-5202100D01*
G01X-5114860Y-682420D02*
X-5088190D01*
Y-712420D01*
X-5096190Y-722420D01*
X-5105530Y-729090D01*
X-5118860Y-732420D01*
X-5132190Y-729090D01*
X-5141530Y-722420D01*
X-5149530Y-712420D01*
X-5154860Y-700750D01*
X-5157530Y-687420D01*
Y-675750D01*
X-5154860Y-665760D01*
X-5149530Y-654090D01*
X-5141530Y-644090D01*
X-5133530Y-637420D01*
X-5122860Y-632420D01*
X-5113530D01*
X-5102860Y-635750D01*
X-5094860Y-642420D01*
G01X-5058290Y-732420D02*
Y-632420D01*
X-4996950Y-732420D01*
Y-632420D01*
G01X-4807810Y-640750D02*
X-4815810Y-635750D01*
X-4825140Y-632420D01*
X-4835810D01*
X-4847810Y-637420D01*
X-4857140Y-645750D01*
X-4863810Y-655750D01*
X-4869140Y-672420D01*
X-4870470Y-687420D01*
X-4867810Y-702420D01*
X-4863810Y-712420D01*
X-4855810Y-722420D01*
X-4846470Y-729090D01*
X-4837140Y-732420D01*
X-4827810D01*
X-4818470Y-729090D01*
X-4810470Y-724090D01*
X-4803810Y-717420D01*
G01X-4768570Y-732420D02*
Y-632420D01*
X-4735230D01*
X-4724570Y-637420D01*
X-4717900Y-644090D01*
X-4715230Y-657420D01*
X-4717900Y-670750D01*
X-4725900Y-679090D01*
X-4735230Y-684090D01*
X-4768570D01*
G01X-4735230D02*
X-4715230Y-732420D01*
G01X-4646660D02*
X-4657330Y-730750D01*
X-4666660Y-724090D01*
X-4674660Y-714090D01*
X-4679990Y-702420D01*
X-4682660Y-689090D01*
Y-675750D01*
X-4679990Y-662420D01*
X-4674660Y-650750D01*
X-4666660Y-640750D01*
X-4657330Y-634090D01*
X-4646660Y-632420D01*
X-4635990Y-634090D01*
X-4626660Y-640750D01*
X-4618660Y-650750D01*
X-4613330Y-662420D01*
X-4610660Y-675750D01*
Y-689090D01*
X-4613330Y-702420D01*
X-4618660Y-714090D01*
X-4626660Y-724090D01*
X-4635990Y-730750D01*
X-4646660Y-732420D01*
G01X-4579420Y-719090D02*
X-4568750Y-727420D01*
X-4556750Y-732420D01*
X-4546090D01*
X-4535420Y-727420D01*
X-4527420Y-719090D01*
X-4523420Y-707420D01*
X-4526090Y-695760D01*
X-4532750Y-685750D01*
X-4544750Y-679090D01*
X-4560750Y-675750D01*
X-4570090Y-669090D01*
X-4574090Y-657420D01*
X-4571420Y-645750D01*
X-4564750Y-637420D01*
X-4555420Y-632420D01*
X-4546090D01*
X-4536750Y-635750D01*
X-4528750Y-644090D01*
G01X-4484180Y-719090D02*
X-4473510Y-727420D01*
X-4461510Y-732420D01*
X-4450850D01*
X-4440180Y-727420D01*
X-4432180Y-719090D01*
X-4428180Y-707420D01*
X-4430850Y-695760D01*
X-4437510Y-685750D01*
X-4449510Y-679090D01*
X-4465510Y-675750D01*
X-4474850Y-669090D01*
X-4478850Y-657420D01*
X-4476180Y-645750D01*
X-4469510Y-637420D01*
X-4460180Y-632420D01*
X-4450850D01*
X-4441510Y-635750D01*
X-4433510Y-644090D01*
G01X-4293700Y-719090D02*
X-4283030Y-727420D01*
X-4271030Y-732420D01*
X-4260370D01*
X-4249700Y-727420D01*
X-4241700Y-719090D01*
X-4237700Y-707420D01*
X-4240370Y-695760D01*
X-4247030Y-685750D01*
X-4259030Y-679090D01*
X-4275030Y-675750D01*
X-4284370Y-669090D01*
X-4288370Y-657420D01*
X-4285700Y-645750D01*
X-4279030Y-637420D01*
X-4269700Y-632420D01*
X-4260370D01*
X-4251030Y-635750D01*
X-4243030Y-644090D01*
G01X-4143790Y-732420D02*
X-4197130D01*
Y-632420D01*
X-4143790D01*
G01X-4165130Y-680750D02*
X-4197130D01*
G01X-4045890Y-640750D02*
X-4053890Y-635750D01*
X-4063220Y-632420D01*
X-4073890D01*
X-4085890Y-637420D01*
X-4095220Y-645750D01*
X-4101890Y-655750D01*
X-4107220Y-672420D01*
X-4108550Y-687420D01*
X-4105890Y-702420D01*
X-4101890Y-712420D01*
X-4093890Y-722420D01*
X-4084550Y-729090D01*
X-4075220Y-732420D01*
X-4065890D01*
X-4056550Y-729090D01*
X-4048550Y-724090D01*
X-4041890Y-717420D01*
G01X-3979980Y-632420D02*
Y-732420D01*
G01X-4010650Y-632420D02*
X-3949310D01*
G01X-3900740D02*
X-3868740D01*
G01X-3884740D02*
Y-732420D01*
G01X-3900740D02*
X-3868740D01*
G01X-3789500D02*
X-3800170Y-730750D01*
X-3809500Y-724090D01*
X-3817500Y-714090D01*
X-3822830Y-702420D01*
X-3825500Y-689090D01*
Y-675750D01*
X-3822830Y-662420D01*
X-3817500Y-650750D01*
X-3809500Y-640750D01*
X-3800170Y-634090D01*
X-3789500Y-632420D01*
X-3778830Y-634090D01*
X-3769500Y-640750D01*
X-3761500Y-650750D01*
X-3756170Y-662420D01*
X-3753500Y-675750D01*
Y-689090D01*
X-3756170Y-702420D01*
X-3761500Y-714090D01*
X-3769500Y-724090D01*
X-3778830Y-730750D01*
X-3789500Y-732420D01*
G01X-3724930D02*
Y-632420D01*
X-3663590Y-732420D01*
Y-632420D01*
G01X-3474450Y-640750D02*
X-3482450Y-635750D01*
X-3491780Y-632420D01*
X-3502450D01*
X-3514450Y-637420D01*
X-3523780Y-645750D01*
X-3530450Y-655750D01*
X-3535780Y-672420D01*
X-3537110Y-687420D01*
X-3534450Y-702420D01*
X-3530450Y-712420D01*
X-3522450Y-722420D01*
X-3513110Y-729090D01*
X-3503780Y-732420D01*
X-3494450D01*
X-3485110Y-729090D01*
X-3477110Y-724090D01*
X-3470450Y-717420D01*
G01X-3436540Y-732420D02*
Y-632420D01*
G01X-3380540D02*
Y-732420D01*
G01Y-682420D02*
X-3436540D01*
G01X-3346630Y-732420D02*
X-3313300Y-632420D01*
X-3279970Y-732420D01*
G01X-3291970Y-697420D02*
X-3334630D01*
G01X-3244730Y-732420D02*
Y-632420D01*
X-3211390D01*
X-3200730Y-637420D01*
X-3194060Y-644090D01*
X-3191390Y-657420D01*
X-3194060Y-670750D01*
X-3202060Y-679090D01*
X-3211390Y-684090D01*
X-3244730D01*
G01X-3211390D02*
X-3191390Y-732420D01*
G01X-3122820Y-632420D02*
Y-732420D01*
G01X-3153490Y-632420D02*
X-3092150D01*
G01X-5591440Y-765750D02*
X-5511440D01*
G01X-5496200D02*
X-5416200D01*
G01X-5400960D02*
X-5320960D01*
G01X-5305720D02*
X-5225720D01*
G01X-5210480D02*
X-5130480D01*
G01X-5115240D02*
X-5035240D01*
G01X-5020000D02*
X-4940000D01*
G01X-4924760D02*
X-4844760D01*
G01X-4829520D02*
X-4749520D01*
G01X-4734280D02*
X-4654280D01*
G01X-4639040D02*
X-4559040D01*
G01X-4543800D02*
X-4463800D01*
G01X-4448560D02*
X-4368560D01*
G01X-4353320D02*
X-4273320D01*
G01X-4258080D02*
X-4178080D01*
G01X-4162840D02*
X-4082840D01*
G01X-4067600D02*
X-3987600D01*
G01X-3972360D02*
X-3892360D01*
G01X-3877120D02*
X-3797120D01*
G01X-3781880D02*
X-3701880D01*
G01X-3686640D02*
X-3606640D01*
G01X-3591400D02*
X-3511400D01*
G01X-3496160D02*
X-3416160D01*
G01X-3400920D02*
X-3320920D01*
G01X-3305680D02*
X-3225680D01*
G01X-3210440D02*
X-3130440D01*
G01X-3115200D02*
X-3035200D01*
G01X-5503820Y-812420D02*
Y-912420D01*
G01X-5534490Y-812420D02*
X-5473150D01*
G01X-5408580Y-912420D02*
X-5419250Y-910750D01*
X-5428580Y-904090D01*
X-5436580Y-894090D01*
X-5441910Y-882420D01*
X-5444580Y-869090D01*
Y-855750D01*
X-5441910Y-842420D01*
X-5436580Y-830750D01*
X-5428580Y-820750D01*
X-5419250Y-814090D01*
X-5408580Y-812420D01*
X-5397910Y-814090D01*
X-5388580Y-820750D01*
X-5380580Y-830750D01*
X-5375250Y-842420D01*
X-5372580Y-855750D01*
Y-869090D01*
X-5375250Y-882420D01*
X-5380580Y-894090D01*
X-5388580Y-904090D01*
X-5397910Y-910750D01*
X-5408580Y-912420D01*
G01X-5313340Y-812420D02*
Y-912420D01*
G01X-5344010Y-812420D02*
X-5282670D01*
G01X-5251430Y-912420D02*
X-5218100Y-812420D01*
X-5184770Y-912420D01*
G01X-5196770Y-877420D02*
X-5239430D01*
G01X-5149530Y-812420D02*
Y-912420D01*
X-5096190D01*
G01X-4932380Y-812420D02*
Y-912420D01*
G01X-4963050Y-812420D02*
X-4901710D01*
G01X-4865140Y-912420D02*
Y-812420D01*
G01X-4809140D02*
Y-912420D01*
G01Y-862420D02*
X-4865140D01*
G01X-4757900Y-812420D02*
X-4725900D01*
G01X-4741900D02*
Y-912420D01*
G01X-4757900D02*
X-4725900D01*
G01X-4617330Y-820750D02*
X-4625330Y-815750D01*
X-4634660Y-812420D01*
X-4645330D01*
X-4657330Y-817420D01*
X-4666660Y-825750D01*
X-4673330Y-835750D01*
X-4678660Y-852420D01*
X-4679990Y-867420D01*
X-4677330Y-882420D01*
X-4673330Y-892420D01*
X-4665330Y-902420D01*
X-4655990Y-909090D01*
X-4646660Y-912420D01*
X-4637330D01*
X-4627990Y-909090D01*
X-4619990Y-904090D01*
X-4613330Y-897420D01*
G01X-4580750Y-912420D02*
Y-812420D01*
G01X-4530090D02*
X-4580750Y-874090D01*
G01X-4522090Y-912420D02*
X-4558090Y-845760D01*
G01X-4486850Y-912420D02*
Y-812420D01*
X-4425510Y-912420D01*
Y-812420D01*
G01X-4334270Y-912420D02*
X-4387610D01*
Y-812420D01*
X-4334270D01*
G01X-4355610Y-860750D02*
X-4387610D01*
G01X-4293700Y-899090D02*
X-4283030Y-907420D01*
X-4271030Y-912420D01*
X-4260370D01*
X-4249700Y-907420D01*
X-4241700Y-899090D01*
X-4237700Y-887420D01*
X-4240370Y-875760D01*
X-4247030Y-865750D01*
X-4259030Y-859090D01*
X-4275030Y-855750D01*
X-4284370Y-849090D01*
X-4288370Y-837420D01*
X-4285700Y-825750D01*
X-4279030Y-817420D01*
X-4269700Y-812420D01*
X-4260370D01*
X-4251030Y-815750D01*
X-4243030Y-824090D01*
G01X-4198460Y-899090D02*
X-4187790Y-907420D01*
X-4175790Y-912420D01*
X-4165130D01*
X-4154460Y-907420D01*
X-4146460Y-899090D01*
X-4142460Y-887420D01*
X-4145130Y-875760D01*
X-4151790Y-865750D01*
X-4163790Y-859090D01*
X-4179790Y-855750D01*
X-4189130Y-849090D01*
X-4193130Y-837420D01*
X-4190460Y-825750D01*
X-4183790Y-817420D01*
X-4174460Y-812420D01*
X-4165130D01*
X-4155790Y-815750D01*
X-4147790Y-824090D01*
G01X-3979980Y-812420D02*
X-3990650Y-815750D01*
X-3998650Y-824090D01*
X-4003980Y-834090D01*
X-4007980Y-847420D01*
X-4009310Y-862420D01*
X-4007980Y-877420D01*
X-4003980Y-890750D01*
X-3998650Y-900760D01*
X-3990650Y-909090D01*
X-3979980Y-912420D01*
X-3969310Y-909090D01*
X-3961310Y-900760D01*
X-3955980Y-890750D01*
X-3951980Y-877420D01*
X-3950650Y-862420D01*
X-3951980Y-847420D01*
X-3955980Y-834090D01*
X-3961310Y-824090D01*
X-3969310Y-815750D01*
X-3979980Y-812420D01*
G01X-3884740Y-915750D02*
X-3887410Y-914090D01*
Y-910750D01*
X-3884740Y-909090D01*
X-3882070Y-910750D01*
Y-914090D01*
X-3884740Y-915750D01*
G01X-3814830Y-829090D02*
X-3806830Y-819090D01*
X-3797500Y-814090D01*
X-3786830Y-812420D01*
X-3773500Y-815750D01*
X-3764170Y-824090D01*
X-3761500Y-834090D01*
X-3762830Y-844090D01*
X-3768170Y-852420D01*
X-3794830Y-869090D01*
X-3806830Y-880750D01*
X-3814830Y-897420D01*
X-3817500Y-912420D01*
X-3761500D01*
G01X-3719590Y-870760D02*
X-3710260Y-859090D01*
X-3702260Y-852420D01*
X-3691590Y-849090D01*
X-3682260Y-852420D01*
X-3675590Y-859090D01*
X-3670260Y-869090D01*
X-3668930Y-880750D01*
X-3670260Y-890750D01*
X-3675590Y-900760D01*
X-3683590Y-909090D01*
X-3692930Y-912420D01*
X-3703590Y-909090D01*
X-3712930Y-899090D01*
X-3718260Y-884090D01*
X-3719590Y-867420D01*
X-3716930Y-845760D01*
X-3712930Y-834090D01*
X-3706260Y-822420D01*
X-3696930Y-814090D01*
X-3687590Y-812420D01*
X-3678260Y-815750D01*
X-3671590Y-824090D01*
G01X-3583020Y-912420D02*
Y-812420D01*
X-3632350Y-884090D01*
X-3565690D01*
G01X-3503780Y-912420D02*
Y-812420D01*
X-3519780Y-832420D01*
G01Y-912420D02*
X-3487780D01*
G01X-3433870Y-870760D02*
X-3424540Y-859090D01*
X-3416540Y-852420D01*
X-3405870Y-849090D01*
X-3396540Y-852420D01*
X-3389870Y-859090D01*
X-3384540Y-869090D01*
X-3383210Y-880750D01*
X-3384540Y-890750D01*
X-3389870Y-900760D01*
X-3397870Y-909090D01*
X-3407210Y-912420D01*
X-3417870Y-909090D01*
X-3427210Y-899090D01*
X-3432540Y-884090D01*
X-3433870Y-867420D01*
X-3431210Y-845760D01*
X-3427210Y-834090D01*
X-3420540Y-822420D01*
X-3411210Y-814090D01*
X-3401870Y-812420D01*
X-3392540Y-815750D01*
X-3385870Y-824090D01*
G01X-3252730Y-912420D02*
Y-812420D01*
X-3218060Y-895750D01*
X-3183390Y-812420D01*
Y-912420D01*
G01X-3157490D02*
Y-812420D01*
X-3122820Y-895750D01*
X-3088150Y-812420D01*
Y-912420D01*
G01X-4376820Y4851100D02*
X-4476820D01*
X-4456820Y4835100D01*
G01X-4376820D02*
Y4867100D01*
G01X-4410150Y4929010D02*
Y4963670D01*
G01X-4460150Y5016250D02*
X-4470150Y5024250D01*
X-4475150Y5033580D01*
X-4476820Y5044250D01*
X-4473490Y5057580D01*
X-4465150Y5066910D01*
X-4455150Y5069580D01*
X-4445150Y5068250D01*
X-4436820Y5062910D01*
X-4420150Y5036250D01*
X-4408490Y5024250D01*
X-4391820Y5016250D01*
X-4376820Y5013580D01*
Y5069580D01*
G01X-3254930Y-497420D02*
X-3196270Y-424090D01*
G01X-3225600Y-410760D02*
Y-510760D01*
G01X-3196270Y-497420D02*
X-3254930Y-424090D01*
G01X-3265600Y-460760D02*
X-3185600D01*
G01X-2967880Y-480760D02*
X-2957210Y-489090D01*
X-2945210Y-494090D01*
X-2934550D01*
X-2923880Y-489090D01*
X-2915880Y-480760D01*
X-2911880Y-469090D01*
X-2914550Y-457430D01*
X-2921210Y-447420D01*
X-2933210Y-440760D01*
X-2949210Y-437420D01*
X-2958550Y-430760D01*
X-2962550Y-419090D01*
X-2959880Y-407420D01*
X-2953210Y-399090D01*
X-2943880Y-394090D01*
X-2934550D01*
X-2925210Y-397420D01*
X-2917210Y-405760D01*
G01X-2873970Y-394090D02*
Y-465760D01*
X-2868640Y-480760D01*
X-2857970Y-490760D01*
X-2844640Y-494090D01*
X-2831310Y-490760D01*
X-2820640Y-480760D01*
X-2815310Y-465760D01*
Y-394090D01*
G01X-2776070Y-494090D02*
Y-394090D01*
X-2742730D01*
X-2732070Y-399090D01*
X-2725400Y-405760D01*
X-2722730Y-419090D01*
X-2725400Y-432420D01*
X-2733400Y-440760D01*
X-2742730Y-445760D01*
X-2776070D01*
G01X-2742730D02*
X-2722730Y-494090D01*
G01X-2679490D02*
Y-394090D01*
X-2628830D01*
G01X-2647490Y-442420D02*
X-2679490D01*
G01X-2592250Y-494090D02*
X-2558920Y-394090D01*
X-2525590Y-494090D01*
G01X-2537590Y-459090D02*
X-2580250D01*
G01X-2434350Y-402420D02*
X-2442350Y-397420D01*
X-2451680Y-394090D01*
X-2462350D01*
X-2474350Y-399090D01*
X-2483680Y-407420D01*
X-2490350Y-417420D01*
X-2495680Y-434090D01*
X-2497010Y-449090D01*
X-2494350Y-464090D01*
X-2490350Y-474090D01*
X-2482350Y-484090D01*
X-2473010Y-490760D01*
X-2463680Y-494090D01*
X-2454350D01*
X-2445010Y-490760D01*
X-2437010Y-485760D01*
X-2430350Y-479090D01*
G01X-2341770Y-494090D02*
X-2395110D01*
Y-394090D01*
X-2341770D01*
G01X-2363110Y-442420D02*
X-2395110D01*
G01X-3442750Y31850D02*
Y-68150D01*
X-3389410D01*
G01X-3346170Y15180D02*
X-3338170Y25180D01*
X-3328840Y30180D01*
X-3318170Y31850D01*
X-3304840Y28520D01*
X-3295510Y20180D01*
X-3292840Y10180D01*
X-3294170Y180D01*
X-3299510Y-8150D01*
X-3326170Y-24820D01*
X-3338170Y-36480D01*
X-3346170Y-53150D01*
X-3348840Y-68150D01*
X-3292840D01*
G01X-3119690Y-14820D02*
X-3114360Y-9820D01*
X-3110360Y-1490D01*
X-3107690Y10180D01*
X-3110360Y20180D01*
X-3115690Y26850D01*
X-3125030Y31850D01*
X-3161030D01*
Y-68150D01*
X-3117030D01*
X-3107690Y-61480D01*
X-3102360Y-51480D01*
X-3099690Y-39820D01*
X-3102360Y-28150D01*
X-3110360Y-18150D01*
X-3119690Y-14820D01*
X-3161030D01*
G01X-3035120Y-68150D02*
X-3045790Y-66480D01*
X-3055120Y-59820D01*
X-3063120Y-49820D01*
X-3068450Y-38150D01*
X-3071120Y-24820D01*
Y-11480D01*
X-3068450Y1850D01*
X-3063120Y13520D01*
X-3055120Y23520D01*
X-3045790Y30180D01*
X-3035120Y31850D01*
X-3024450Y30180D01*
X-3015120Y23520D01*
X-3007120Y13520D01*
X-3001790Y1850D01*
X-2999120Y-11480D01*
Y-24820D01*
X-3001790Y-38150D01*
X-3007120Y-49820D01*
X-3015120Y-59820D01*
X-3024450Y-66480D01*
X-3035120Y-68150D01*
G01X-2939880Y31850D02*
Y-68150D01*
G01X-2970550Y31850D02*
X-2909210D01*
G01X-2844640D02*
Y-68150D01*
G01X-2875310Y31850D02*
X-2813970D01*
G01X-2749400Y-68150D02*
X-2760070Y-66480D01*
X-2769400Y-59820D01*
X-2777400Y-49820D01*
X-2782730Y-38150D01*
X-2785400Y-24820D01*
Y-11480D01*
X-2782730Y1850D01*
X-2777400Y13520D01*
X-2769400Y23520D01*
X-2760070Y30180D01*
X-2749400Y31850D01*
X-2738730Y30180D01*
X-2729400Y23520D01*
X-2721400Y13520D01*
X-2716070Y1850D01*
X-2713400Y-11480D01*
Y-24820D01*
X-2716070Y-38150D01*
X-2721400Y-49820D01*
X-2729400Y-59820D01*
X-2738730Y-66480D01*
X-2749400Y-68150D01*
G01X-2688830D02*
Y31850D01*
X-2654160Y-51480D01*
X-2619490Y31850D01*
Y-68150D01*
G01X-2434350Y23520D02*
X-2442350Y28520D01*
X-2451680Y31850D01*
X-2462350D01*
X-2474350Y26850D01*
X-2483680Y18520D01*
X-2490350Y8520D01*
X-2495680Y-8150D01*
X-2497010Y-23150D01*
X-2494350Y-38150D01*
X-2490350Y-48150D01*
X-2482350Y-58150D01*
X-2473010Y-64820D01*
X-2463680Y-68150D01*
X-2454350D01*
X-2445010Y-64820D01*
X-2437010Y-59820D01*
X-2430350Y-53150D01*
G01X-2368440Y-68150D02*
X-2379110Y-66480D01*
X-2388440Y-59820D01*
X-2396440Y-49820D01*
X-2401770Y-38150D01*
X-2404440Y-24820D01*
Y-11480D01*
X-2401770Y1850D01*
X-2396440Y13520D01*
X-2388440Y23520D01*
X-2379110Y30180D01*
X-2368440Y31850D01*
X-2357770Y30180D01*
X-2348440Y23520D01*
X-2340440Y13520D01*
X-2335110Y1850D01*
X-2332440Y-11480D01*
Y-24820D01*
X-2335110Y-38150D01*
X-2340440Y-49820D01*
X-2348440Y-59820D01*
X-2357770Y-66480D01*
X-2368440Y-68150D01*
G01X-2303870D02*
Y31850D01*
X-2242530Y-68150D01*
Y31850D01*
G01X-2207290Y-68150D02*
Y31850D01*
X-2180630D01*
X-2169960Y26850D01*
X-2161960Y20180D01*
X-2155290Y10180D01*
X-2149960Y-1490D01*
X-2148630Y-18150D01*
X-2149960Y-34820D01*
X-2155290Y-46480D01*
X-2161960Y-56490D01*
X-2169960Y-63150D01*
X-2180630Y-68150D01*
X-2207290D01*
G01X-2112050Y31850D02*
Y-39820D01*
X-2106720Y-54820D01*
X-2096050Y-64820D01*
X-2082720Y-68150D01*
X-2069390Y-64820D01*
X-2058720Y-54820D01*
X-2053390Y-39820D01*
Y31850D01*
G01X-1958150Y23520D02*
X-1966150Y28520D01*
X-1975480Y31850D01*
X-1986150D01*
X-1998150Y26850D01*
X-2007480Y18520D01*
X-2014150Y8520D01*
X-2019480Y-8150D01*
X-2020810Y-23150D01*
X-2018150Y-38150D01*
X-2014150Y-48150D01*
X-2006150Y-58150D01*
X-1996810Y-64820D01*
X-1987480Y-68150D01*
X-1978150D01*
X-1968810Y-64820D01*
X-1960810Y-59820D01*
X-1954150Y-53150D01*
G01X-1892240Y31850D02*
Y-68150D01*
G01X-1922910Y31850D02*
X-1861570D01*
G01X-1797000Y-68150D02*
X-1807670Y-66480D01*
X-1817000Y-59820D01*
X-1825000Y-49820D01*
X-1830330Y-38150D01*
X-1833000Y-24820D01*
Y-11480D01*
X-1830330Y1850D01*
X-1825000Y13520D01*
X-1817000Y23520D01*
X-1807670Y30180D01*
X-1797000Y31850D01*
X-1786330Y30180D01*
X-1777000Y23520D01*
X-1769000Y13520D01*
X-1763670Y1850D01*
X-1761000Y-11480D01*
Y-24820D01*
X-1763670Y-38150D01*
X-1769000Y-49820D01*
X-1777000Y-59820D01*
X-1786330Y-66480D01*
X-1797000Y-68150D01*
G01X-1728430D02*
Y31850D01*
X-1695090D01*
X-1684430Y26850D01*
X-1677760Y20180D01*
X-1675090Y6850D01*
X-1677760Y-6480D01*
X-1685760Y-14820D01*
X-1695090Y-19820D01*
X-1728430D01*
G01X-1695090D02*
X-1675090Y-68150D01*
G01X-3254930Y2171840D02*
X-3196270Y2245170D01*
G01X-3225600Y2258500D02*
Y2158500D01*
G01X-3196270Y2171840D02*
X-3254930Y2245170D01*
G01X-3265600Y2208500D02*
X-3185600D01*
G01X-2969210Y2175170D02*
Y2275170D01*
X-2942550D01*
X-2931880Y2270170D01*
X-2923880Y2263500D01*
X-2917210Y2253500D01*
X-2911880Y2241830D01*
X-2910550Y2225170D01*
X-2911880Y2208500D01*
X-2917210Y2196840D01*
X-2923880Y2186830D01*
X-2931880Y2180170D01*
X-2942550Y2175170D01*
X-2969210D01*
G01X-2860640Y2275170D02*
X-2828640D01*
G01X-2844640D02*
Y2175170D01*
G01X-2860640D02*
X-2828640D01*
G01X-2722730D02*
X-2776070D01*
Y2275170D01*
X-2722730D01*
G01X-2744070Y2226840D02*
X-2776070D01*
G01X-2680830Y2275170D02*
Y2175170D01*
X-2627490D01*
G01X-2532250D02*
X-2585590D01*
Y2275170D01*
X-2532250D01*
G01X-2553590Y2226840D02*
X-2585590D01*
G01X-2434350Y2266840D02*
X-2442350Y2271840D01*
X-2451680Y2275170D01*
X-2462350D01*
X-2474350Y2270170D01*
X-2483680Y2261840D01*
X-2490350Y2251840D01*
X-2495680Y2235170D01*
X-2497010Y2220170D01*
X-2494350Y2205170D01*
X-2490350Y2195170D01*
X-2482350Y2185170D01*
X-2473010Y2178500D01*
X-2463680Y2175170D01*
X-2454350D01*
X-2445010Y2178500D01*
X-2437010Y2183500D01*
X-2430350Y2190170D01*
G01X-2368440Y2275170D02*
Y2175170D01*
G01X-2399110Y2275170D02*
X-2337770D01*
G01X-2299870Y2175170D02*
Y2275170D01*
X-2266530D01*
X-2255870Y2270170D01*
X-2249200Y2263500D01*
X-2246530Y2250170D01*
X-2249200Y2236840D01*
X-2257200Y2228500D01*
X-2266530Y2223500D01*
X-2299870D01*
G01X-2266530D02*
X-2246530Y2175170D01*
G01X-2193960Y2275170D02*
X-2161960D01*
G01X-2177960D02*
Y2175170D01*
G01X-2193960D02*
X-2161960D01*
G01X-2053390Y2266840D02*
X-2061390Y2271840D01*
X-2070720Y2275170D01*
X-2081390D01*
X-2093390Y2270170D01*
X-2102720Y2261840D01*
X-2109390Y2251840D01*
X-2114720Y2235170D01*
X-2116050Y2220170D01*
X-2113390Y2205170D01*
X-2109390Y2195170D01*
X-2101390Y2185170D01*
X-2092050Y2178500D01*
X-2082720Y2175170D01*
X-2073390D01*
X-2064050Y2178500D01*
X-2056050Y2183500D01*
X-2049390Y2190170D01*
G01X-3254930Y4741100D02*
X-3196270Y4814430D01*
G01X-3225600Y4827760D02*
Y4727760D01*
G01X-3196270Y4741100D02*
X-3254930Y4814430D01*
G01X-3265600Y4777760D02*
X-3185600D01*
G01X-2967880Y4757760D02*
X-2957210Y4749430D01*
X-2945210Y4744430D01*
X-2934550D01*
X-2923880Y4749430D01*
X-2915880Y4757760D01*
X-2911880Y4769430D01*
X-2914550Y4781090D01*
X-2921210Y4791100D01*
X-2933210Y4797760D01*
X-2949210Y4801100D01*
X-2958550Y4807760D01*
X-2962550Y4819430D01*
X-2959880Y4831100D01*
X-2953210Y4839430D01*
X-2943880Y4844430D01*
X-2934550D01*
X-2925210Y4841100D01*
X-2917210Y4832760D01*
G01X-2873970Y4844430D02*
Y4772760D01*
X-2868640Y4757760D01*
X-2857970Y4747760D01*
X-2844640Y4744430D01*
X-2831310Y4747760D01*
X-2820640Y4757760D01*
X-2815310Y4772760D01*
Y4844430D01*
G01X-2776070Y4744430D02*
Y4844430D01*
X-2742730D01*
X-2732070Y4839430D01*
X-2725400Y4832760D01*
X-2722730Y4819430D01*
X-2725400Y4806100D01*
X-2733400Y4797760D01*
X-2742730Y4792760D01*
X-2776070D01*
G01X-2742730D02*
X-2722730Y4744430D01*
G01X-2679490D02*
Y4844430D01*
X-2628830D01*
G01X-2647490Y4796100D02*
X-2679490D01*
G01X-2592250Y4744430D02*
X-2558920Y4844430D01*
X-2525590Y4744430D01*
G01X-2537590Y4779430D02*
X-2580250D01*
G01X-2434350Y4836100D02*
X-2442350Y4841100D01*
X-2451680Y4844430D01*
X-2462350D01*
X-2474350Y4839430D01*
X-2483680Y4831100D01*
X-2490350Y4821100D01*
X-2495680Y4804430D01*
X-2497010Y4789430D01*
X-2494350Y4774430D01*
X-2490350Y4764430D01*
X-2482350Y4754430D01*
X-2473010Y4747760D01*
X-2463680Y4744430D01*
X-2454350D01*
X-2445010Y4747760D01*
X-2437010Y4752760D01*
X-2430350Y4759430D01*
G01X-2341770Y4744430D02*
X-2395110D01*
Y4844430D01*
X-2341770D01*
G01X-2363110Y4796100D02*
X-2395110D01*
G01X-3442750Y4518500D02*
Y4418500D01*
X-3389410D01*
G01X-3320840D02*
Y4518500D01*
X-3336840Y4498500D01*
G01Y4418500D02*
X-3304840D01*
G01X-3130360Y4518500D02*
Y4418500D01*
G01X-3161030Y4518500D02*
X-3099690D01*
G01X-3035120Y4418500D02*
X-3045790Y4420170D01*
X-3055120Y4426830D01*
X-3063120Y4436830D01*
X-3068450Y4448500D01*
X-3071120Y4461830D01*
Y4475170D01*
X-3068450Y4488500D01*
X-3063120Y4500170D01*
X-3055120Y4510170D01*
X-3045790Y4516830D01*
X-3035120Y4518500D01*
X-3024450Y4516830D01*
X-3015120Y4510170D01*
X-3007120Y4500170D01*
X-3001790Y4488500D01*
X-2999120Y4475170D01*
Y4461830D01*
X-3001790Y4448500D01*
X-3007120Y4436830D01*
X-3015120Y4426830D01*
X-3024450Y4420170D01*
X-3035120Y4418500D01*
G01X-2966550D02*
Y4518500D01*
X-2934550D01*
X-2923880Y4513500D01*
X-2915880Y4501830D01*
X-2913210Y4488500D01*
X-2915880Y4475170D01*
X-2922550Y4465170D01*
X-2934550Y4460160D01*
X-2966550D01*
G01X-2720070Y4510170D02*
X-2728070Y4515170D01*
X-2737400Y4518500D01*
X-2748070D01*
X-2760070Y4513500D01*
X-2769400Y4505170D01*
X-2776070Y4495170D01*
X-2781400Y4478500D01*
X-2782730Y4463500D01*
X-2780070Y4448500D01*
X-2776070Y4438500D01*
X-2768070Y4428500D01*
X-2758730Y4421830D01*
X-2749400Y4418500D01*
X-2740070D01*
X-2730730Y4421830D01*
X-2722730Y4426830D01*
X-2716070Y4433500D01*
G01X-2654160Y4418500D02*
X-2664830Y4420170D01*
X-2674160Y4426830D01*
X-2682160Y4436830D01*
X-2687490Y4448500D01*
X-2690160Y4461830D01*
Y4475170D01*
X-2687490Y4488500D01*
X-2682160Y4500170D01*
X-2674160Y4510170D01*
X-2664830Y4516830D01*
X-2654160Y4518500D01*
X-2643490Y4516830D01*
X-2634160Y4510170D01*
X-2626160Y4500170D01*
X-2620830Y4488500D01*
X-2618160Y4475170D01*
Y4461830D01*
X-2620830Y4448500D01*
X-2626160Y4436830D01*
X-2634160Y4426830D01*
X-2643490Y4420170D01*
X-2654160Y4418500D01*
G01X-2589590D02*
Y4518500D01*
X-2528250Y4418500D01*
Y4518500D01*
G01X-2493010Y4418500D02*
Y4518500D01*
X-2466350D01*
X-2455680Y4513500D01*
X-2447680Y4506830D01*
X-2441010Y4496830D01*
X-2435680Y4485160D01*
X-2434350Y4468500D01*
X-2435680Y4451830D01*
X-2441010Y4440170D01*
X-2447680Y4430160D01*
X-2455680Y4423500D01*
X-2466350Y4418500D01*
X-2493010D01*
G01X-2397770Y4518500D02*
Y4446830D01*
X-2392440Y4431830D01*
X-2381770Y4421830D01*
X-2368440Y4418500D01*
X-2355110Y4421830D01*
X-2344440Y4431830D01*
X-2339110Y4446830D01*
Y4518500D01*
G01X-2243870Y4510170D02*
X-2251870Y4515170D01*
X-2261200Y4518500D01*
X-2271870D01*
X-2283870Y4513500D01*
X-2293200Y4505170D01*
X-2299870Y4495170D01*
X-2305200Y4478500D01*
X-2306530Y4463500D01*
X-2303870Y4448500D01*
X-2299870Y4438500D01*
X-2291870Y4428500D01*
X-2282530Y4421830D01*
X-2273200Y4418500D01*
X-2263870D01*
X-2254530Y4421830D01*
X-2246530Y4426830D01*
X-2239870Y4433500D01*
G01X-2177960Y4518500D02*
Y4418500D01*
G01X-2208630Y4518500D02*
X-2147290D01*
G01X-2082720Y4418500D02*
X-2093390Y4420170D01*
X-2102720Y4426830D01*
X-2110720Y4436830D01*
X-2116050Y4448500D01*
X-2118720Y4461830D01*
Y4475170D01*
X-2116050Y4488500D01*
X-2110720Y4500170D01*
X-2102720Y4510170D01*
X-2093390Y4516830D01*
X-2082720Y4518500D01*
X-2072050Y4516830D01*
X-2062720Y4510170D01*
X-2054720Y4500170D01*
X-2049390Y4488500D01*
X-2046720Y4475170D01*
Y4461830D01*
X-2049390Y4448500D01*
X-2054720Y4436830D01*
X-2062720Y4426830D01*
X-2072050Y4420170D01*
X-2082720Y4418500D01*
G01X-2014150D02*
Y4518500D01*
X-1980810D01*
X-1970150Y4513500D01*
X-1963480Y4506830D01*
X-1960810Y4493500D01*
X-1963480Y4480170D01*
X-1971480Y4471830D01*
X-1980810Y4466830D01*
X-2014150D01*
G01X-1980810D02*
X-1960810Y4418500D01*
M02*
