G04 ================== begin FILE IDENTIFICATION RECORD ==================*
G04 Layout Name:  C:/ERS_TST_11/allegro/STAB_TST_11.brd*
G04 Film Name:    SPTOP*
G04 File Format:  Gerber RS274X*
G04 File Origin:  Cadence Allegro 17.2-S025*
G04 Origin Date:  Sat Dec 06 10:50:01 2025*
G04 *
G04 Layer:  VIA CLASS/PASTEMASK_TOP*
G04 Layer:  PIN/PASTEMASK_TOP*
G04 Layer:  PACKAGE GEOMETRY/PASTEMASK_TOP*
G04 Layer:  DRC ERROR CLASS/PASTEMASK_TOP*
G04 *
G04 Offset:    (0.0000 0.0000)*
G04 Mirror:    No*
G04 Mode:      Positive*
G04 Rotation:  0*
G04 FullContactRelief:  No*
G04 UndefLineWidth:     0.0000*
G04 ================== end FILE IDENTIFICATION RECORD ====================*
%FSLAX25Y25*MOMM*%
%IR0*IPPOS*OFA0.00000B0.00000*MIA0B0*SFA1.00000B1.00000*%
%ADD13R,1.1X.8*%
%ADD16R,1.9X1.3*%
%ADD17R,1.2X1.2*%
%ADD10R,1.17X1.17*%
%ADD11R,3.048X1.9304*%
%ADD14R,1.3224X1.7288*%
%ADD12R,2.948X1.8304*%
%ADD15R,5.488X5.742*%
%LPD*%
G75*
G54D10*
X470000Y250000D03*
X256640D03*
X470000Y1140000D03*
X256640D03*
X470000Y550000D03*
X256640D03*
X900000Y230000D03*
X1113360D03*
X900000Y1180000D03*
X1113360D03*
X1110000Y860000D03*
X896640D03*
X1010000Y2690000D03*
X1223360D03*
X1030000Y3080000D03*
X1243360D03*
X2890000Y980000D03*
X2700000Y1780000D03*
X2913360D03*
X2890000Y1390000D03*
X2910000Y2150000D03*
X2696640D03*
X2700000Y2580000D03*
X2913360D03*
X2560000Y3370000D03*
X2773360D03*
X2770000Y3030000D03*
X2556640D03*
X2770000Y3680000D03*
X2556640D03*
X3420000Y850000D03*
X3633360D03*
X3420000Y1150000D03*
X3633360D03*
X3103360Y980000D03*
Y1390000D03*
X3740000Y2530000D03*
X3526640D03*
X3530000Y2810000D03*
X3743360D03*
G54D11*
X370000Y1780560D03*
X3630000Y1550000D03*
Y2149440D03*
G54D12*
X370000Y2380000D03*
G54D13*
X484260Y3074140D03*
X690000Y2970000D03*
Y3178280D03*
X1340000Y660000D03*
Y451720D03*
X894260Y1604140D03*
X1100000Y1500000D03*
Y1708280D03*
X904260Y2044140D03*
X1110000Y1940000D03*
Y2148280D03*
X1215740Y3615860D03*
X1010000Y3720000D03*
Y3511720D03*
X2010000Y320000D03*
X1804260Y424140D03*
X2010000Y528280D03*
X1545740Y555860D03*
X1534260Y1374140D03*
X1740000Y1270000D03*
Y1478280D03*
X1974260Y1444140D03*
X2180000Y1340000D03*
Y1548280D03*
X2024260Y3634140D03*
X2230000Y3530000D03*
Y3738280D03*
X1474260Y3634140D03*
X1680000Y3530000D03*
Y3738280D03*
X2424260Y324140D03*
X2630000Y220000D03*
Y428280D03*
X2404260Y914140D03*
X2610000Y810000D03*
Y1018280D03*
G54D14*
X1740000Y1960000D03*
X2197200D03*
G54D15*
X1968600Y2696600D03*
G54D16*
X3450000Y3125000D03*
G54D17*
X3565000Y3675000D03*
X3335000D03*
M02*
