G04 ================== begin FILE IDENTIFICATION RECORD ==================*
G04 Layout Name:  C:/ERS_TST_11/allegro/STAB_TST_11.brd*
G04 Film Name:    TOP*
G04 File Format:  Gerber RS274X*
G04 File Origin:  Cadence Allegro 17.2-S025*
G04 Origin Date:  Sat Dec 06 10:50:01 2025*
G04 *
G04 Layer:  ETCH/TOP*
G04 Layer:  PIN/TOP*
G04 Layer:  VIA CLASS/TOP*
G04 *
G04 Offset:    (0.0000 0.0000)*
G04 Mirror:    No*
G04 Mode:      Positive*
G04 Rotation:  0*
G04 FullContactRelief:  No*
G04 UndefLineWidth:     0.0000*
G04 ================== end FILE IDENTIFICATION RECORD ====================*
%FSLAX25Y25*MOMM*%
%IR0*IPPOS*OFA0.00000B0.00000*MIA0B0*SFA1.00000B1.00000*%
%ADD11C,.8*%
%ADD13R,1.27X.9144*%
%ADD17R,2.X1.3*%
%ADD14C,1.*%
%ADD18R,1.3X1.3*%
%ADD10R,1.27X1.27*%
%ADD12R,3.048X1.9304*%
%ADD15R,1.4224X1.8288*%
%ADD16R,5.588X5.842*%
%ADD19C,.4*%
%ADD20C,.65*%
G75*
%LPD*%
G75*
G54D10*
X470000Y250000D03*
X256640D03*
X470000Y1140000D03*
X256640D03*
X470000Y550000D03*
X256640D03*
X900000Y230000D03*
X1113360D03*
X900000Y1180000D03*
X1113360D03*
X1110000Y860000D03*
X896640D03*
X1010000Y2690000D03*
X1223360D03*
X1030000Y3080000D03*
X1243360D03*
X2890000Y980000D03*
X2700000Y1780000D03*
X2913360D03*
X2890000Y1390000D03*
X2910000Y2150000D03*
X2696640D03*
X2700000Y2580000D03*
X2913360D03*
X2560000Y3370000D03*
X2773360D03*
X2770000Y3030000D03*
X2556640D03*
X2770000Y3680000D03*
X2556640D03*
X3420000Y850000D03*
X3633360D03*
X3420000Y1150000D03*
X3633360D03*
X3103360Y980000D03*
Y1390000D03*
X3740000Y2530000D03*
X3526640D03*
X3530000Y2810000D03*
X3743360D03*
G54D20*
G01X256640Y550000D02*
Y250000D01*
G01Y1140000D02*
Y1406640D01*
X370000Y1520000D01*
Y1780560D01*
G01X256640Y1140000D02*
Y550000D01*
G01X370000Y1780560D02*
X567600D01*
X568160Y1780000D01*
X640000D01*
X700000Y1840000D01*
Y2195000D01*
X765000Y2260000D01*
X1050000D01*
X1110000Y2200000D01*
Y2148280D01*
G01X1223360Y2690000D02*
Y2474860D01*
X1130000Y2381500D01*
X948540D01*
X947040Y2380000D01*
X370000D01*
G01X1534260Y2148280D02*
X1110000D01*
G01X1223360Y2690000D02*
Y2923360D01*
X1243360Y2943360D01*
Y3080000D01*
G01X2556640Y2836640D02*
X2423360D01*
X2370000Y2890000D01*
Y3030000D01*
X2320000Y3080000D01*
X1243360D01*
G01X1534260Y1374140D02*
Y2148280D01*
G01D02*
X1540000Y2154020D01*
Y2631600D01*
X1605000Y2696600D01*
X1968600D01*
G01X2610000Y810000D02*
X2810000D01*
G01X2556640Y3030000D02*
Y2836640D01*
G01X3630000Y2149440D02*
X3432400D01*
X3310000Y2271840D01*
Y2750000D01*
X3370000Y2810000D01*
X3530000D01*
G01D02*
Y2918700D01*
X3520000Y2928700D01*
Y2950000D01*
X3480000Y2990000D01*
X3290000D01*
X3243360Y2943360D01*
Y2836640D01*
G54D11*
X610000Y880000D03*
X740000Y400000D03*
X1080000Y680000D03*
X680000Y730000D03*
X1350000Y930000D03*
X1340000Y790000D03*
X740000Y550000D03*
X1250000Y1180000D03*
X1324850Y1267320D03*
X710000Y1180000D03*
X1070000Y2490000D03*
X1300000Y3300000D03*
X1490000Y230000D03*
X1620000Y1160000D03*
X1910000Y1030000D03*
Y770000D03*
X1730000Y720000D03*
X1520000Y3310000D03*
X1880000Y3530000D03*
X2380000Y1100000D03*
X2620000Y550000D03*
X2240000Y450000D03*
X2810000Y810000D03*
X2240000Y1170000D03*
Y1710000D03*
X2380000Y3250000D03*
X2556640Y2836640D03*
X2930000Y3680000D03*
X3370000Y1550000D03*
X3526640Y2353360D03*
X3165000Y3125000D03*
X3243360Y2836640D03*
X3150000Y3680000D03*
G54D12*
X370000Y1780560D03*
Y2380000D03*
X3630000Y1550000D03*
Y2149440D03*
G54D13*
X484260Y3074140D03*
X690000Y2970000D03*
Y3178280D03*
X1340000Y660000D03*
Y451720D03*
X894260Y1604140D03*
X1100000Y1500000D03*
Y1708280D03*
X904260Y2044140D03*
X1110000Y1940000D03*
Y2148280D03*
X1215740Y3615860D03*
X1010000Y3720000D03*
Y3511720D03*
X2010000Y320000D03*
X1804260Y424140D03*
X2010000Y528280D03*
X1545740Y555860D03*
X1534260Y1374140D03*
X1740000Y1270000D03*
Y1478280D03*
X1974260Y1444140D03*
X2180000Y1340000D03*
Y1548280D03*
X2024260Y3634140D03*
X2230000Y3530000D03*
Y3738280D03*
X1474260Y3634140D03*
X1680000Y3530000D03*
Y3738280D03*
X2424260Y324140D03*
X2630000Y220000D03*
Y428280D03*
X2404260Y914140D03*
X2610000Y810000D03*
Y1018280D03*
G54D14*
X500000Y3500000D03*
X3500000Y500000D03*
G54D15*
X1740000Y1960000D03*
X2197200D03*
G54D16*
X1968600Y2696600D03*
G54D17*
X3450000Y3125000D03*
G54D18*
X3565000Y3675000D03*
X3335000D03*
G54D19*
G01X740000Y400000D02*
X690000Y350000D01*
Y270000D01*
X670000Y250000D01*
X470000D01*
G01X680000Y730000D02*
X560000D01*
X470000Y820000D01*
Y1140000D01*
G01X1910000Y1030000D02*
X1504360D01*
X1499360Y1035000D01*
X1420640D01*
X1415640Y1030000D01*
X760000D01*
X610000Y880000D01*
G01X470000Y550000D02*
X740000D01*
G01X690000Y2970000D02*
X512550D01*
X484260Y2998290D01*
Y3074140D01*
G01X690000Y2800000D02*
X680000Y2790000D01*
X360000D01*
X260000Y2890000D01*
Y3230000D01*
X309000Y3279000D01*
X709000D01*
X850000Y3420000D01*
Y3690000D01*
X880000Y3720000D01*
X1010000D01*
G01X900000Y230000D02*
Y760440D01*
X896640Y763800D01*
Y860000D01*
G01X1113360Y230000D02*
X1490000D01*
G01X1340000Y451720D02*
X1158280D01*
X1080000Y530000D01*
Y680000D01*
G01X1350000Y930000D02*
X1277300D01*
X1207300Y860000D01*
X1110000D01*
G01X1340000Y660000D02*
Y790000D01*
G01X1113360Y1180000D02*
X1250000D01*
G01X1620000Y1160000D02*
X1432170D01*
X1324850Y1267320D01*
G01X1110000Y1940000D02*
Y1796700D01*
X1100000Y1786700D01*
Y1708280D01*
G01Y1500000D02*
X910000D01*
X894260Y1515740D01*
Y1604140D01*
G01X900000Y1180000D02*
Y1340000D01*
X870000Y1370000D01*
X760000D01*
X720000Y1410000D01*
Y1560000D01*
X764140Y1604140D01*
X894260D01*
G01X710000Y1180000D02*
X900000D01*
G01X690000Y2800000D02*
Y2630000D01*
X830000Y2490000D01*
X1070000D01*
G01X1110000Y1940000D02*
X930000D01*
X904260Y1965740D01*
Y2044140D01*
G01X1010000Y2690000D02*
Y2840000D01*
X970000Y2880000D01*
X890000D01*
X850000Y2920000D01*
Y3138280D01*
X810000Y3178280D01*
X690000D01*
G01Y2970000D02*
Y2800000D01*
G01X1300000Y3300000D02*
X1474260Y3474260D01*
Y3634140D01*
G01X1030000Y3080000D02*
Y3280000D01*
X1010000Y3300000D01*
Y3511720D01*
G01X1680000Y3738280D02*
X1259740D01*
X1215740Y3694280D01*
Y3615860D01*
G01X1730000Y720000D02*
Y626070D01*
X1729260Y625330D01*
Y536150D01*
X1640000Y446890D01*
Y300000D01*
X1761720Y178280D01*
X1968280D01*
X2010000Y220000D01*
Y320000D01*
G01D02*
X2323920D01*
X2328060Y324140D01*
X2424260D01*
G01X2404260Y914140D02*
X1614140D01*
X1545740Y845740D01*
Y555860D01*
G01X1910000Y1030000D02*
Y1241710D01*
G01Y770000D02*
Y697300D01*
X1804260Y591560D01*
Y424140D01*
G01X2240000Y450000D02*
Y488280D01*
X2200000Y528280D01*
X2010000D01*
G01X1740000Y1960000D02*
Y1478280D01*
G01X1910000Y1241710D02*
X1881710Y1270000D01*
X1740000D01*
G01X1974260Y1444140D02*
Y1305970D01*
X1910000Y1241710D01*
G01X2180000Y1340000D02*
Y1230000D01*
X2240000Y1170000D01*
G01X1520000Y3310000D02*
X1610000Y3400000D01*
X1960000D01*
X2024260Y3464260D01*
Y3634140D01*
G01X1680000Y3738280D02*
X2230000D01*
G01X1880000Y3530000D02*
X1680000D01*
G01X2630000Y220000D02*
X2440000D01*
X2424260Y235740D01*
Y324140D01*
G01X2380000Y1100000D02*
Y1016820D01*
X2404260Y992560D01*
Y914140D01*
G01X2890000Y1390000D02*
Y980000D01*
G01X2620000Y550000D02*
Y438280D01*
X2630000Y428280D01*
G01X3370000Y1550000D02*
X2800000D01*
G01D02*
X2760000D01*
X2700000Y1610000D01*
Y1780000D01*
G01X2180000Y1548280D02*
X2798280D01*
X2800000Y1550000D01*
G01X2913360Y1780000D02*
Y1946640D01*
X2910000Y1950000D01*
Y2150000D01*
G01X2890000Y1390000D02*
X2500000D01*
X2450000Y1340000D01*
X2180000D01*
G01X2197200Y1960000D02*
Y1825500D01*
X2240000Y1782700D01*
Y1710000D01*
G01X2913360Y2580000D02*
X3009560D01*
X3040000Y2610440D01*
Y3740000D01*
X3110000Y3810000D01*
X3527700D01*
X3565000Y3772700D01*
Y3675000D01*
G01X2700000Y2580000D02*
Y2249560D01*
X2696640Y2246200D01*
Y2150000D01*
G01X2230000Y3530000D02*
Y3300000D01*
X2280000Y3250000D01*
X2380000D01*
G01X2770000Y3030000D02*
X2910000D01*
X2940000Y3060000D01*
Y3340000D01*
X2910000Y3370000D01*
X2773360D01*
G01X2556640Y3680000D02*
Y3469560D01*
X2560000Y3466200D01*
Y3370000D01*
G01X2770000Y3680000D02*
X2930000D01*
G01X3633360Y1150000D02*
Y850000D01*
G01X3420000Y1150000D02*
Y850000D01*
G01D02*
Y720000D01*
X3380000Y680000D01*
X3143360D01*
X3103360Y720000D01*
Y980000D01*
G01Y1390000D02*
Y980000D01*
G01X3370000Y1550000D02*
X3630000D01*
G01D02*
Y1249560D01*
X3633360Y1246200D01*
Y1150000D01*
G01X3103360Y1400000D02*
Y1390000D01*
G01X3526640Y2530000D02*
Y2353360D01*
G01X3450000Y3125000D02*
X3165000D01*
G01X3150000Y3680000D02*
X3232300D01*
X3237300Y3675000D01*
X3335000D01*
G01X3740000Y2530000D02*
Y2710440D01*
X3743360Y2713800D01*
Y2810000D01*
M02*
